HIERARCHY
ROOT Hips
{
	OFFSET 0.000000 100.481300 0.000000
	CHANNELS 6 Xposition Yposition Zposition Xrotation Yrotation Zrotation
	JOINT Spine
	{
		OFFSET -0.279200 12.230698 -2.892100
		CHANNELS 3 Xrotation Yrotation Zrotation
		JOINT Spine1
		{
			OFFSET -0.325700 14.269203 -3.374200
			CHANNELS 3 Xrotation Yrotation Zrotation
			JOINT Spine2
			{
				OFFSET -0.372300 16.307602 -0.352600
				CHANNELS 3 Xrotation Yrotation Zrotation
				JOINT Neck
				{
					OFFSET -0.418800 17.814194 8.416900
					CHANNELS 3 Xrotation Yrotation Zrotation
					JOINT Head
					{
						OFFSET 0.000000 7.031097 3.806800
						CHANNELS 3 Xrotation Yrotation Zrotation
						JOINT HeadTop_End
						{
							OFFSET 0.000000 24.646606 12.978600
							CHANNELS 3 Xrotation Yrotation Zrotation
							End Site
							{
								OFFSET 0.000000 27.854965 0.000000
							}
						}
					}
				}
				JOINT LeftShoulder
				{
					OFFSET 16.952999 14.495407 -7.737500
					CHANNELS 3 Xrotation Yrotation Zrotation
					JOINT LeftArm
					{
						OFFSET 9.308998 -2.777710 0.208600
						CHANNELS 3 Xrotation Yrotation Zrotation
						JOINT LeftForeArm
						{
							OFFSET 29.972298 0.000000 0.000000
							CHANNELS 3 Xrotation Yrotation Zrotation
							JOINT LeftHand
							{
								OFFSET 26.026505 0.000000 0.000000
								CHANNELS 3 Xrotation Yrotation Zrotation
								JOINT LeftHandThumb1
								{
									OFFSET 12.240501 -7.147949 9.207150
									CHANNELS 3 Xrotation Yrotation Zrotation
									JOINT LeftHandThumb2
									{
										OFFSET 4.138618 -2.389435 2.389433
										CHANNELS 3 Xrotation Yrotation Zrotation
										JOINT LeftHandThumb3
										{
											OFFSET 2.726913 -1.574387 1.574386
											CHANNELS 3 Xrotation Yrotation Zrotation
											JOINT LeftHandThumb4
											{
												OFFSET 3.941010 -2.275345 2.275342
												CHANNELS 3 Xrotation Yrotation Zrotation
												End Site
												{
													OFFSET -0.005798 5.087799 0.009903
												}
											}
										}
									}
								}
								JOINT LeftHandIndex1
								{
									OFFSET 24.424698 -1.985611 5.953459
									CHANNELS 3 Xrotation Yrotation Zrotation
									JOINT LeftHandIndex2
									{
										OFFSET 6.426697 0.000000 0.000000
										CHANNELS 3 Xrotation Yrotation Zrotation
										JOINT LeftHandIndex3
										{
											OFFSET 5.337898 0.000000 0.000000
											CHANNELS 3 Xrotation Yrotation Zrotation
											JOINT LeftHandIndex4
											{
												OFFSET 4.409401 0.000000 0.000000
												CHANNELS 3 Xrotation Yrotation Zrotation
												End Site
												{
													OFFSET 0.000000 4.409363 0.014373
												}
											}
										}
									}
								}
								JOINT LeftHandMiddle1
								{
									OFFSET 23.810104 0.000000 0.000000
									CHANNELS 3 Xrotation Yrotation Zrotation
									JOINT LeftHandMiddle2
									{
										OFFSET 7.176498 0.000000 0.000000
										CHANNELS 3 Xrotation Yrotation Zrotation
										JOINT LeftHandMiddle3
										{
											OFFSET 6.774902 0.000000 0.000000
											CHANNELS 3 Xrotation Yrotation Zrotation
											JOINT LeftHandMiddle4
											{
												OFFSET 5.403328 0.000000 0.000000
												CHANNELS 3 Xrotation Yrotation Zrotation
												End Site
												{
													OFFSET -0.027702 5.403244 0.017414
												}
											}
										}
									}
								}
								JOINT LeftHandRing1
								{
									OFFSET 22.908401 -0.839279 -6.020567
									CHANNELS 3 Xrotation Yrotation Zrotation
									JOINT LeftHandRing2
									{
										OFFSET 6.337502 0.000000 0.000000
										CHANNELS 3 Xrotation Yrotation Zrotation
										JOINT LeftHandRing3
										{
											OFFSET 5.779297 0.000000 0.000000
											CHANNELS 3 Xrotation Yrotation Zrotation
											JOINT LeftHandRing4
											{
												OFFSET 4.965698 0.000000 0.000000
												CHANNELS 3 Xrotation Yrotation Zrotation
												End Site
												{
													OFFSET 0.000000 4.965668 0.016186
												}
											}
										}
									}
								}
								JOINT LeftHandPinky1
								{
									OFFSET 20.037003 -1.530319 -10.950146
									CHANNELS 3 Xrotation Yrotation Zrotation
									JOINT LeftHandPinky2
									{
										OFFSET 5.254700 0.000000 0.000000
										CHANNELS 3 Xrotation Yrotation Zrotation
										JOINT LeftHandPinky3
										{
											OFFSET 4.810204 0.000000 0.000000
											CHANNELS 3 Xrotation Yrotation Zrotation
											JOINT LeftHandPinky4
											{
												OFFSET 3.647202 0.000000 0.000000
												CHANNELS 3 Xrotation Yrotation Zrotation
												End Site
												{
													OFFSET 0.000000 3.647186 0.011889
												}
											}
										}
									}
								}
							}
						}
					}
				}
				JOINT RightShoulder
				{
					OFFSET -15.141001 14.495407 -7.737500
					CHANNELS 3 Xrotation Yrotation Zrotation
					JOINT RightArm
					{
						OFFSET -9.308998 -2.777710 0.208500
						CHANNELS 3 Xrotation Yrotation Zrotation
						JOINT RightForeArm
						{
							OFFSET -29.972300 0.000000 0.000000
							CHANNELS 3 Xrotation Yrotation Zrotation
							JOINT RightHand
							{
								OFFSET -26.026505 0.000000 0.000000
								CHANNELS 3 Xrotation Yrotation Zrotation
								JOINT RightHandThumb1
								{
									OFFSET -12.240601 -7.148026 9.207092
									CHANNELS 3 Xrotation Yrotation Zrotation
									JOINT RightHandThumb2
									{
										OFFSET -4.138618 -2.389435 2.389433
										CHANNELS 3 Xrotation Yrotation Zrotation
										JOINT RightHandThumb3
										{
											OFFSET -2.726974 -1.574417 1.574421
											CHANNELS 3 Xrotation Yrotation Zrotation
											JOINT RightHandThumb4
											{
												OFFSET -3.941010 -2.275345 2.275343
												CHANNELS 3 Xrotation Yrotation Zrotation
												End Site
												{
													OFFSET 0.005814 5.087799 0.009927
												}
											}
										}
									}
								}
								JOINT RightHandIndex1
								{
									OFFSET -24.424698 -1.985657 5.953444
									CHANNELS 3 Xrotation Yrotation Zrotation
									JOINT RightHandIndex2
									{
										OFFSET -6.426697 0.000000 0.000000
										CHANNELS 3 Xrotation Yrotation Zrotation
										JOINT RightHandIndex3
										{
											OFFSET -5.337898 0.000000 0.000000
											CHANNELS 3 Xrotation Yrotation Zrotation
											JOINT RightHandIndex4
											{
												OFFSET -4.409401 0.000000 0.000000
												CHANNELS 3 Xrotation Yrotation Zrotation
												End Site
												{
													OFFSET 0.000000 4.409363 0.014408
												}
											}
										}
									}
								}
								JOINT RightHandMiddle1
								{
									OFFSET -23.810097 0.000000 0.000000
									CHANNELS 3 Xrotation Yrotation Zrotation
									JOINT RightHandMiddle2
									{
										OFFSET -7.176498 0.000000 0.000000
										CHANNELS 3 Xrotation Yrotation Zrotation
										JOINT RightHandMiddle3
										{
											OFFSET -6.774902 0.000000 0.000000
											CHANNELS 3 Xrotation Yrotation Zrotation
											JOINT RightHandMiddle4
											{
												OFFSET -5.403328 0.000000 0.000000
												CHANNELS 3 Xrotation Yrotation Zrotation
												End Site
												{
													OFFSET 0.027702 5.403244 0.017457
												}
											}
										}
									}
								}
								JOINT RightHandRing1
								{
									OFFSET -22.908302 -0.839325 -6.020576
									CHANNELS 3 Xrotation Yrotation Zrotation
									JOINT RightHandRing2
									{
										OFFSET -6.337502 0.000000 0.000000
										CHANNELS 3 Xrotation Yrotation Zrotation
										JOINT RightHandRing3
										{
											OFFSET -5.779297 0.000000 0.000000
											CHANNELS 3 Xrotation Yrotation Zrotation
											JOINT RightHandRing4
											{
												OFFSET -4.965698 0.000000 0.000000
												CHANNELS 3 Xrotation Yrotation Zrotation
												End Site
												{
													OFFSET 0.000000 4.965668 0.016226
												}
											}
										}
									}
								}
								JOINT RightHandPinky1
								{
									OFFSET -20.037003 -1.530334 -10.950259
									CHANNELS 3 Xrotation Yrotation Zrotation
									JOINT RightHandPinky2
									{
										OFFSET -5.254700 0.000000 0.000000
										CHANNELS 3 Xrotation Yrotation Zrotation
										JOINT RightHandPinky3
										{
											OFFSET -4.810204 0.000000 0.000000
											CHANNELS 3 Xrotation Yrotation Zrotation
											JOINT RightHandPinky4
											{
												OFFSET -3.647202 0.000000 0.000000
												CHANNELS 3 Xrotation Yrotation Zrotation
												End Site
												{
													OFFSET 0.000000 3.647186 0.011917
												}
											}
										}
									}
								}
							}
						}
					}
				}
			}
		}
	}
	JOINT LeftUpLeg
	{
		OFFSET 15.427100 -6.655098 0.678600
		CHANNELS 3 Xrotation Yrotation Zrotation
		JOINT LeftLeg
		{
			OFFSET 4.081073 -39.591068 13.024000
			CHANNELS 3 Xrotation Yrotation Zrotation
			JOINT LeftFoot
			{
				OFFSET -4.081074 -37.707932 -15.979700
				CHANNELS 3 Xrotation Yrotation Zrotation
				JOINT LeftToeBase
				{
					OFFSET 5.346399 -15.068900 20.645000
					CHANNELS 3 Xrotation Yrotation Zrotation
					JOINT LeftToe_End
					{
						OFFSET 2.754700 0.931300 11.300900
						CHANNELS 3 Xrotation Yrotation Zrotation
						End Site
						{
							OFFSET 0.000000 11.669021 0.000000
						}
					}
				}
			}
		}
	}
	JOINT RightUpLeg
	{
		OFFSET -15.569500 -6.655098 0.678600
		CHANNELS 3 Xrotation Yrotation Zrotation
		JOINT RightLeg
		{
			OFFSET -4.081825 -39.591045 13.023800
			CHANNELS 3 Xrotation Yrotation Zrotation
			JOINT RightFoot
			{
				OFFSET 4.081824 -37.707954 -15.979600
				CHANNELS 3 Xrotation Yrotation Zrotation
				JOINT RightToeBase
				{
					OFFSET -5.346400 -15.068900 20.645000
					CHANNELS 3 Xrotation Yrotation Zrotation
					JOINT RightToe_End
					{
						OFFSET -2.754700 0.931300 11.300900
						CHANNELS 3 Xrotation Yrotation Zrotation
						End Site
						{
							OFFSET 0.000000 11.669021 0.000000
						}
					}
				}
			}
		}
	}
}
MOTION
Frames: 5
Frame Time: 0.033333
-1.750656 93.353096 -17.882244 5.262332 -20.850430 4.660409 10.515407 -4.287180 2.037581 4.920181 -1.767107 0.216034 4.906347 -1.804070 0.206195 16.951966 0.639765 6.379657 10.013068 5.906171 -7.278164 0.000002 -0.000000 -0.000000 2.837104 -12.158361 -3.766306 6.165400 5.439210 -76.958692 0.000065 -70.761156 0.000069 -73.687141 0.617812 36.542789 15.243823 -12.010832 -1.756539 9.991680 31.405667 3.585306 2.602959 13.223607 4.531968 -0.000001 -0.000001 -0.000001 3.438010 5.961399 -59.915314 3.438006 5.961380 -59.915307 0.917569 3.439305 -29.868124 0.000000 0.000000 -0.000004 3.436325 5.960435 -59.899168 3.439687 5.962344 -59.931440 0.917578 3.439306 -29.868127 -0.000003 -0.000000 -0.000000 3.438010 5.961399 -59.915314 3.438008 5.961382 -59.915314 0.917571 3.439305 -29.868117 -0.000000 0.000000 0.000001 6.970681 7.996850 -59.834349 3.456221 1.883731 -60.181391 0.917574 3.439301 -29.868117 -0.000001 0.000000 -0.000001 1.764554 3.201693 6.453302 32.610301 -2.392573 20.598677 0.422692 90.233370 -0.421443 28.564734 -13.981348 5.855331 12.566629 -0.051689 -2.567632 12.418958 -25.093995 -8.813306 3.098824 -7.738617 -7.072584 -0.000001 0.000000 -0.000001 2.498115 -5.341517 50.104092 2.498121 -5.341522 50.104116 0.653440 -2.947638 24.993791 0.000002 0.000000 -0.000000 2.498115 -5.341516 50.104089 2.498124 -5.341525 50.104113 0.653441 -2.947642 24.993793 -0.000001 0.000000 -0.000001 2.498120 -5.341528 50.104089 2.498126 -5.341517 50.104116 0.653439 -2.947638 24.993790 0.000002 -0.000001 -0.000002 2.498115 -5.341517 50.104089 2.498124 -5.341530 50.104116 0.653440 -2.947633 24.993788 0.000001 0.000000 -0.000001 -11.743124 16.943345 8.386052 19.066092 3.293688 2.785631 -10.709519 2.325248 -9.807056 -0.631424 0.000000 0.000005 -0.000000 0.000000 -0.000000 -24.220821 -11.876836 -8.150762 24.597740 -4.084415 -5.692945 -6.196440 -0.832548 7.228195 -1.082680 0.000034 0.000002 0.000000 0.000002 0.000000 
-1.375184 93.271263 -17.998360 5.830392 -21.604633 4.305714 10.685649 -4.279187 1.585811 4.921298 -1.768162 0.095156 4.909779 -1.798404 0.086508 16.636568 1.111686 5.805745 9.631609 8.714398 -8.616384 0.000002 -0.000001 0.000003 2.851317 -12.242217 -3.796547 6.245224 5.329827 -76.654400 -0.000048 -72.260055 -0.000044 -72.200304 2.088392 36.399864 15.243825 -12.010835 -1.756540 9.991680 31.405664 3.585308 2.602960 13.223610 4.531970 -0.000000 -0.000001 -0.000001 3.438013 5.961398 -59.915314 3.438005 5.961381 -59.915307 0.917570 3.439301 -29.868127 0.000002 0.000001 0.000001 3.436327 5.960431 -59.899168 3.439688 5.962350 -59.931447 0.917576 3.439302 -29.868127 0.000000 -0.000001 -0.000000 3.438013 5.961398 -59.915314 3.438007 5.961379 -59.915307 0.917571 3.439302 -29.868120 0.000001 0.000002 0.000003 6.970681 7.996848 -59.834342 3.456222 1.883731 -60.181398 0.917576 3.439299 -29.868120 0.000001 -0.000001 -0.000001 1.727386 3.156245 6.306184 33.086905 -4.334032 22.554466 0.000442 91.659704 -0.000396 29.347431 -13.797430 5.592008 12.566629 -0.051690 -2.567635 12.418962 -25.093999 -8.813306 3.098822 -7.738609 -7.072587 -0.000000 0.000003 -0.000000 2.498115 -5.341514 50.104086 2.498120 -5.341522 50.104116 0.653438 -2.947637 24.993793 -0.000001 0.000000 0.000000 2.498115 -5.341514 50.104092 2.498120 -5.341525 50.104120 0.653443 -2.947640 24.993797 0.000002 0.000001 -0.000001 2.498120 -5.341526 50.104089 2.498129 -5.341514 50.104120 0.653442 -2.947634 24.993791 0.000002 -0.000001 -0.000001 2.498115 -5.341514 50.104092 2.498122 -5.341530 50.104120 0.653441 -2.947635 24.993791 0.000001 0.000000 -0.000001 -12.846579 17.764255 9.099432 19.777520 3.143842 2.846442 -11.075328 2.314649 -9.849999 -0.544566 0.000003 -0.000002 -0.000000 -0.000000 0.000000 -24.775181 -11.276735 -7.473724 24.258194 -4.067856 -5.575789 -5.583199 -0.803205 7.217998 -0.973671 -0.000019 0.000001 0.000000 -0.000002 -0.000000 
-0.948875 93.181091 -18.121456 6.462125 -23.036389 3.859409 10.863435 -4.360696 0.966547 4.939200 -1.802298 -0.140254 4.929005 -1.827606 -0.148018 16.410583 1.653329 5.193423 9.106396 11.915806 -10.207153 0.000001 0.000001 -0.000001 2.851608 -12.252357 -3.973546 5.724263 4.983137 -76.170638 -0.000019 -72.732622 -0.000015 -70.053125 4.036635 36.223201 15.243823 -12.010836 -1.756539 9.991681 31.405667 3.585307 2.602961 13.223612 4.531968 -0.000000 -0.000001 -0.000001 3.438015 5.961398 -59.915314 3.438005 5.961379 -59.915307 0.917571 3.439303 -29.868127 0.000002 -0.000001 -0.000004 3.436329 5.960431 -59.899168 3.439689 5.962348 -59.931447 0.917577 3.439304 -29.868124 -0.000000 0.000000 0.000001 3.438015 5.961398 -59.915314 3.438006 5.961382 -59.915307 0.917574 3.439300 -29.868117 0.000001 -0.000002 -0.000003 6.970686 7.996847 -59.834342 3.456221 1.883731 -60.181398 0.917574 3.439303 -29.868120 0.000002 -0.000001 -0.000003 1.719656 3.143332 6.279304 33.277471 -6.403458 23.752505 0.002182 93.567192 -0.002148 30.015362 -13.980871 5.978123 12.566631 -0.051690 -2.567633 12.418961 -25.093997 -8.813306 3.098823 -7.738621 -7.072584 -0.000002 0.000001 0.000001 2.498117 -5.341517 50.104089 2.498122 -5.341526 50.104120 0.653441 -2.947638 24.993790 0.000001 -0.000003 -0.000000 2.498117 -5.341516 50.104092 2.498121 -5.341528 50.104120 0.653443 -2.947642 24.993795 -0.000000 -0.000001 0.000001 2.498123 -5.341524 50.104086 2.498119 -5.341515 50.104120 0.653443 -2.947639 24.993791 0.000001 0.000001 0.000000 2.498117 -5.341517 50.104092 2.498123 -5.341530 50.104120 0.653440 -2.947636 24.993790 0.000002 -0.000002 -0.000001 -13.879162 18.655943 10.024934 20.593985 3.518204 3.065372 -11.614533 2.406685 -10.251420 -0.436106 0.000000 0.000000 -0.000000 0.000000 -0.000000 -25.474268 -10.748696 -6.384862 23.757705 -3.523518 -5.548858 -4.713884 -0.700405 6.996996 -0.861118 -0.000017 0.000002 0.000000 -0.000002 -0.000000 
-0.484653 93.094887 -18.243105 7.021420 -24.924422 3.457988 11.046395 -4.572760 0.107470 4.952761 -1.883307 -0.513049 4.942905 -1.905540 -0.519819 16.342131 2.246279 4.549235 8.614947 15.403815 -11.976157 0.000000 0.000000 -0.000000 2.842486 -12.207994 -4.220080 4.631106 4.130567 -75.358174 0.000065 -72.073877 0.000065 -67.963968 5.930673 35.898142 15.243819 -12.010831 -1.756539 9.991680 31.405667 3.585308 2.602962 13.223610 4.531969 -0.000000 0.000003 0.000001 3.438012 5.961398 -59.915314 3.438007 5.961378 -59.915307 0.917571 3.439302 -29.868124 -0.000000 -0.000000 0.000001 3.436328 5.960432 -59.899168 3.439687 5.962349 -59.931447 0.917577 3.439305 -29.868124 -0.000000 -0.000000 -0.000003 3.438012 5.961398 -59.915321 3.438008 5.961381 -59.915307 0.917572 3.439302 -29.868117 -0.000001 0.000001 0.000002 6.970684 7.996848 -59.834342 3.456220 1.883729 -60.181398 0.917576 3.439302 -29.868117 -0.000000 -0.000000 -0.000001 1.733819 3.150247 6.348095 33.423941 -8.437411 24.164226 0.000502 95.809379 -0.000490 29.926067 -14.459319 6.659980 12.566629 -0.051691 -2.567633 12.418962 -25.093999 -8.813304 3.098823 -7.738614 -7.072587 -0.000003 0.000002 -0.000001 2.498115 -5.341517 50.104089 2.498118 -5.341521 50.104123 0.653438 -2.947639 24.993791 0.000001 -0.000001 -0.000001 2.498115 -5.341516 50.104089 2.498119 -5.341525 50.104116 0.653439 -2.947644 24.993791 -0.000001 0.000003 0.000000 2.498120 -5.341528 50.104089 2.498127 -5.341517 50.104120 0.653441 -2.947636 24.993791 0.000001 0.000000 -0.000002 2.498115 -5.341517 50.104089 2.498122 -5.341529 50.104120 0.653437 -2.947632 24.993788 0.000002 -0.000000 0.000002 -14.601703 19.407433 10.900566 21.387472 4.474320 3.371587 -12.233689 2.592809 -10.887663 -0.341548 -0.000001 -0.000003 -0.000000 -0.000000 -0.000000 -26.216631 -10.353558 -5.153807 23.196074 -2.519707 -5.602009 -3.689865 -0.546281 6.639543 -0.795545 -0.000017 -0.000000 -0.000000 0.000002 0.000000 
-0.003393 92.991119 -18.350023 7.515070 -27.197613 3.143947 11.214541 -4.914309 -1.004548 4.933726 -2.009153 -1.009318 4.923646 -2.029669 -1.014399 16.358069 2.877129 3.855064 8.326427 19.066938 -13.741560 0.000002 0.000000 0.000000 2.832176 -12.152542 -4.447001 3.094049 2.645141 -74.274503 -0.000051 -70.359302 -0.000028 -66.766820 7.337696 35.551753 15.243823 -12.010831 -1.756539 9.991681 31.405671 3.585308 2.602961 13.223605 4.531970 0.000001 0.000003 0.000000 3.438017 5.961399 -59.915314 3.438006 5.961381 -59.915307 0.917571 3.439304 -29.868124 -0.000000 -0.000000 -0.000000 3.436330 5.960433 -59.899168 3.439689 5.962348 -59.931440 0.917577 3.439305 -29.868124 0.000000 0.000000 -0.000004 3.438017 5.961399 -59.915314 3.438009 5.961384 -59.915307 0.917571 3.439302 -29.868117 0.000000 -0.000000 -0.000001 6.970686 7.996849 -59.834349 3.456221 1.883730 -60.181398 0.917575 3.439302 -29.868117 0.000000 -0.000000 -0.000004 1.746034 3.147862 6.418828 33.616945 -10.339606 24.099370 0.000045 98.182876 -0.000064 29.297263 -14.863018 7.239534 12.566629 -0.051692 -2.567635 12.418960 -25.093990 -8.813303 3.098825 -7.738616 -7.072585 -0.000004 0.000001 -0.000000 2.498116 -5.341518 50.104089 2.498122 -5.341523 50.104116 0.653443 -2.947640 24.993793 0.000002 0.000000 -0.000002 2.498116 -5.341517 50.104092 2.498120 -5.341524 50.104116 0.653442 -2.947645 24.993795 -0.000000 -0.000002 0.000000 2.498118 -5.341529 50.104089 2.498126 -5.341518 50.104120 0.653441 -2.947638 24.993791 -0.000000 0.000002 -0.000000 2.498116 -5.341518 50.104092 2.498122 -5.341530 50.104120 0.653440 -2.947637 24.993793 0.000001 -0.000000 0.000000 -15.040816 20.110450 11.742920 22.181234 5.832222 3.619915 -12.931153 2.851580 -11.609308 -0.276611 0.000000 0.000001 0.000000 -0.000000 0.000000 -26.974364 -9.862114 -3.858602 22.651516 -1.289270 -5.642058 -2.576649 -0.370857 6.214665 -0.769358 -0.000029 0.000001 -0.000000 -0.000002 -0.000000 
